<?xml version="1.0" encoding="UTF-8" standalone="no"?>
<svg
   viewBox="0 0 644.91205 222.34403"
   version="1.1"
   id="svg86"
   sodipodi:docname="forBIDS_logo.svg"
   inkscape:version="1.1.2 (0a00cf5339, 2022-02-04)"
   width="644.91205"
   height="222.34404"
   xmlns:inkscape="http://www.inkscape.org/namespaces/inkscape"
   xmlns:sodipodi="http://sodipodi.sourceforge.net/DTD/sodipodi-0.dtd"
   xmlns="http://www.w3.org/2000/svg"
   xmlns:svg="http://www.w3.org/2000/svg"
   xmlns:rdf="http://www.w3.org/1999/02/22-rdf-syntax-ns#"
   xmlns:cc="http://creativecommons.org/ns#"
   xmlns:dc="http://purl.org/dc/elements/1.1/">
  <sodipodi:namedview
     id="namedview88"
     pagecolor="#ffffff"
     bordercolor="#666666"
     borderopacity="1.0"
     inkscape:pageshadow="2"
     inkscape:pageopacity="0.0"
     inkscape:pagecheckerboard="0"
     showgrid="false"
     inkscape:zoom="1.0721154"
     inkscape:cx="204.73543"
     inkscape:cy="62.959641"
     inkscape:window-width="2560"
     inkscape:window-height="1016"
     inkscape:window-x="0"
     inkscape:window-y="0"
     inkscape:window-maximized="1"
     inkscape:current-layer="Слой_1-2"
     fit-margin-top="0"
     fit-margin-left="0"
     fit-margin-right="0"
     fit-margin-bottom="0" />
  <defs
     id="defs4">
    <style
       id="style2">.cls-1{fill:#1a1a1a;}</style>
  </defs>
  <title
     id="title6">Ресурс 2</title>
  <g
     id="Слой_2"
     data-name="Слой 2"
     transform="translate(20.905579,-2.7118301)">
    <g
       id="Слой_1-2"
       data-name="Слой 1">
      <circle
         style="fill:none;stroke:#ff776a;stroke-width:20;stroke-miterlimit:4;stroke-dasharray:none;stroke-opacity:1;paint-order:markers stroke fill;stop-color:#000000"
         id="path980"
         cx="-113.88385"
         cy="90.266441"
         r="101.17202"
         transform="rotate(-90)" />
      <path
         style="fill:none;stroke:#ff776a;stroke-width:20;stroke-linecap:butt;stroke-linejoin:miter;stroke-miterlimit:4;stroke-dasharray:none;stroke-opacity:1"
         d="M 18.687281,42.304683 161.8456,185.46302"
         id="path9091" />
      <path
         class="cls-1"
         d="m 302.11,148.84 -3,-1.43 2.54,-2.19 a 33.55,33.55 0 0 0 11.94,-26.37 c 0,-21 -14.08,-31.26 -43,-31.26 H 214.27 V 214 H 269 c 18.23,0 48.81,-4.76 48.81,-36.65 0.04,-14.15 -5.11,-23.46 -15.7,-28.51 z M 265.69,110.3 c 15.75,0 22.17,4.38 22.17,15.09 0,4 -1.92,13.2 -19.75,13.2 H 238.82 V 117 l -15.58,-6.7 z m 0.36,81 h -27.23 v -30.9 h 28.73 c 12.08,0 24.43,1.81 24.43,15.26 0.02,13.72 -12.46,15.6 -25.93,15.6 z"
         id="path58" />
      <rect
         class="cls-1"
         x="341.84"
         y="87.589996"
         width="24.57"
         height="126.38"
         id="rect60" />
      <path
         class="cls-1"
         d="M 435.29,87.59 H 396 V 214 h 36.48 c 25.57,0 44.79,-6.08 57.13,-18.06 12.34,-11.98 18.75,-27.66 18.75,-46.81 0.01,-23 -9.48,-61.54 -73.07,-61.54 z m -0.38,103.67 H 420.59 V 117.54 L 403,110.3 h 18 v 0 h 13.94 c 31.83,0 48,13 48,38.8 -0.06,27.99 -16.2,42.16 -48.03,42.16 z"
         id="path62" />
      <path
         class="cls-1"
         d="m 624,177.68 a 32,32 0 0 0 -5,-17.83 c -6.69,-9.77 -16.61,-13.71 -29.89,-18.2 -4.71,-1.6 -9.38,-2.85 -13.9,-4.05 -12.88,-3.43 -24,-6.39 -24,-15.77 0,-6.62 3.78,-14.52 21.8,-14.52 12.49,0 23.29,4.83 33,14.77 l 16.31,-15.78 c -11.7,-14.59 -27.51,-21.69 -48.25,-21.69 -14.34,0 -26.12,3.78 -35,11.25 -8.88,7.47 -13.42,16 -13.42,26.34 0,22.27 16.77,30.47 34.88,36 4.42,1.49 8.53,2.61 12.5,3.7 7.53,2.07 14,3.85 19.08,7.21 4.08,2.72 6.42,6.66 6.42,10.81 0,4.15 -2.2,7.84 -6,10.4 -3.63,2.62 -9.06,3.91 -16.54,3.91 -15.63,0 -29.77,-7.74 -39.15,-21.35 L 519,187.74 c 10.47,18.6 31.4,29.22 57.74,29.22 13.68,0 24.76,-3.74 33.89,-11.44 8.86,-7.34 13.37,-16.7 13.37,-27.84 z"
         id="path64" />
      <g
         id="g934"
         transform="matrix(0.62372399,-0.62372399,0.62372399,0.62372399,-39.097111,104.68914)">
        <path
           class="cls-1"
           d="M 147.27,98.15 V 85.94 H 99 a 16.35,16.35 0 0 0 -1.1,-7.81 c -1.37,-3.24 -3.18,-7.09 -4.5,-9.81 2.73,-3.16 5.34,-7.95 4.88,-13.57 A 27.26,27.26 0 0 0 94.66,43.23 c 3,-5.72 8,-18.19 0.86,-29.78 C 89.66,3.91 80.08,1.16 74.9,0.38 67.77,-0.7 61.14,0.56 57.6,3.66 a 26.25,26.25 0 0 0 -5.39,6.5 C 46.34,9 38.3,9.74 32.72,17.42 a 22.13,22.13 0 0 0 -4,16.11 25.47,25.47 0 0 0 -15.91,22.06 28,28 0 0 0 1.49,12.77 C 6.77,74.8 -1.95,88 2,107 a 76.71,76.71 0 0 0 3.47,12.74 C 2.94,124 -1,132.1 0.22,140.52 c 1,6.71 4.89,12 7.48,14.9 -1,5.81 -2.09,18.51 6.18,27.49 6.82,7.37 16.23,8.61 22.51,8.46 2.54,7 9.24,20 24.54,21.85 a 54.14,54.14 0 0 0 6.06,0.38 c 16.88,0 27.45,-9.2 31.57,-17.82 a 45.94,45.94 0 0 0 4.15,-15.18 h 44.56 V 168.39 H 102.5 c -0.1,-0.69 -0.15,-1.35 -0.27,-2 -1.52,-9.6 -3.86,-15.09 -6.34,-18.1 a 66.62,66.62 0 0 0 2.51,-10 h 48.87 V 126 H 98.82 v -0.09 a 53.7,53.7 0 0 0 -6.34,-18.65 21.52,21.52 0 0 0 2.27,-9.13 z M 23.1,56.47 c 0.7,-8.19 5.77,-11.76 9.27,-13.26 5.62,0 12.41,16 21.17,13.26 C 48.22,52 44.78,48.14 39.65,35.11 c -0.09,-0.24 -2.46,-6.28 1.41,-11.62 3.39,-4.67 8.56,-3.52 10.71,-2.78 5.58,3.13 3,23.47 10.08,20.5 7.08,-2.97 17.58,-9 14.84,-15.34 C 73.6,26.22 67.08,38 62.11,33 57.94,28.83 58.89,21 60.11,17.38 a 16.41,16.41 0 0 1 4.25,-5.93 c 0.63,-0.49 4.15,-1.67 9.39,-0.78 3.32,0.57 9.37,2.38 12.94,8.19 5.84,9.53 -2.33,21.49 -2.4,21.59 a 5.23,5.23 0 0 0 0.3,6.34 16.9,16.9 0 0 1 3.41,8.78 c 0.33,4.18 -3.94,7.49 -4,7.49 -2.63,0.44 -5.68,-5.6 -5.68,-5.6 a 27.46,27.46 0 0 0 4.14,12.08 c 0,0 3.67,7.35 5.88,12.59 0.92,2.19 0.08,5.47 -1.39,8.4 a 0.2,0.2 0 0 1 0,-0.08 c -3.44,3.74 -8.61,4.6 -12.76,1.87 -4.15,-2.73 -3.81,-5.83 -5.83,-15.72 a 38.21,38.21 0 0 0 -1,-3.86 v 0 c 0,0 -2.79,-10.84 -1.36,-16 1,-3.53 3.39,-6.75 9.64,-6.18 -3.36,-5.85 -10.46,-4.76 -13.83,-0.24 -3,4.09 -2.92,10.21 -1.89,13.16 -7,-3.83 -12.06,1.94 -12.06,1.94 0,0 6.33,0.14 10.12,4.16 1.9,2 3,4.53 3.85,12 0.85,7.47 5.6,15.51 11.48,17.51 a 27.25,27.25 0 0 0 10.69,1.44 16,16 0 0 1 -1.81,4 5.23,5.23 0 0 0 0,5.8 43.79,43.79 0 0 1 6.3,17 c 0.86,6.5 -1.22,14 -2.59,18 -7.83,-1.29 -16.46,-11.92 -17.52,-19.37 A 12.54,12.54 0 0 0 67.29,122 h 0.14 c 4.87,-0.51 5.52,-14.13 5.52,-14.13 0,0 -6.55,11.54 -16.69,7.13 -5.75,-2.59 -7.18,-12.48 -7.75,-18.36 -0.55,-5.72 3.49,-13 3.71,-13.47 -0.38,0.23 -6.64,4.09 -8.59,7.29 -1.95,3.2 -5,4.18 -11.62,2.6 C 25.39,91.48 21.4,78.61 25.06,73.39 a 5.28,5.28 0 0 0 0.28,-0.48 3.54,3.54 0 0 0 0.27,-0.32 c 2.31,-1.76 12.12,3.12 18,-2.67 -13.62,0 -19.22,-4.35 -19.22,-4.35 -0.63,-1.12 -1.73,-3.94 -1.29,-9.1 z m 66.12,134.86 c -3.1,6.51 -12,13.47 -27,11.64 C 50.6,201.54 46.41,189.19 45.45,185.73 a 73.64,73.64 0 0 0 6.1,-8.35 114.87,114.87 0 0 1 -13.55,3.56 c -3.81,0.31 -11.69,0.23 -16.55,-5 C 17,171.08 17,163.76 17.57,159.27 c 6.25,2.22 12.54,1.84 17.89,-3.87 -6.23,0.19 -13.64,-1.28 -19.49,-6.27 -1.5,-1.52 -4.88,-5.37 -5.52,-10 -0.56,-3.9 0.89,-8.21 2.49,-11.49 2.65,5.58 10.86,10.21 17.36,14.31 7.26,4.59 17.35,5.56 17.77,11.75 0.94,13.28 -17.51,17.91 -17.51,17.91 6.46,-0.06 16.54,-1.52 19.65,-5.1 3.84,-0.38 10,1.44 14.8,5.08 5.92,4.5 9.08,14.44 9.08,14.44 1.62,-6.49 -2.87,-14.91 -5.73,-19.7 -2.86,-4.79 -3,-14.15 -3,-14.15 0,0 -4.31,6.12 -3.73,11.2 -1.51,-1.81 -5.34,-2.34 -8.23,-2.49 A 22.57,22.57 0 0 0 54.59,152 c -0.17,-2.62 -3.37,-5.73 -7.6,-8.7 6.49,-1.85 10.89,-12.4 4.87,-14.67 0,2 -3.37,10.67 -17.28,7.47 -0.8,-0.4 -1.56,-0.76 -2.28,-1.11 A 34.41,34.41 0 0 1 16.71,119.83 c -0.55,-1.22 -1,-2.36 -1.48,-3.58 -0.38,-0.82 -1.51,-3.62 -3.13,-11.4 -2.13,-10.28 0.46,-17.75 3.74,-22.74 -0.48,8.42 7.79,15.35 13.45,17.93 6.3,2.85 13.2,-1.59 13.62,2.15 0.42,3.74 2,4.72 0.57,8.89 -1.43,4.17 -10,6.16 -19.64,1.15 -0.29,9 21.22,9.6 24.52,5.73 1.16,3.74 9.33,3.74 13.07,6.75 3.74,3.01 4.87,16.34 9.31,19.94 4.44,3.6 13.78,7.6 18.65,13.34 0.14,0.15 0.25,0.28 0.36,0.42 A 51.81,51.81 0 0 1 92,168 c 1.43,8.66 0.48,16.51 -2.78,23.33 z"
           id="path66"
           style="fill:#ff0000" />
        <polygon
           class="cls-1"
           points="172.16,85.21 172.16,75.44 181.32,85.18 181.32,85.21 "
           id="polygon68"
           style="fill:#ff0000" />
        <polygon
           class="cls-1"
           points="155.47,75.44 169.03,75.44 169.03,88.34 181.32,88.34 181.32,106.07 155.47,106.07 "
           id="polygon70"
           style="fill:#ff0000" />
        <polygon
           class="cls-1"
           points="172.16,127.13 172.16,117.35 181.32,127.09 181.32,127.13 "
           id="polygon72"
           style="fill:#ff0000" />
        <polygon
           class="cls-1"
           points="155.47,117.35 169.03,117.35 169.03,130.25 181.32,130.25 181.32,147.99 155.47,147.99 "
           id="polygon74"
           style="fill:#ff0000" />
        <polygon
           class="cls-1"
           points="172.16,169.28 172.16,159.5 181.32,169.24 181.32,169.28 "
           id="polygon76"
           style="fill:#ff0000" />
        <polygon
           class="cls-1"
           points="155.47,159.5 169.03,159.5 169.03,172.4 181.32,172.4 181.32,190.13 155.47,190.13 "
           id="polygon78"
           style="fill:#ff0000" />
        <path
           class="cls-1"
           d="m 142.7,29.61 h -14.88 l -0.61,-1.85 A 2.3,2.3 0 0 0 125,26.18 h -11.17 a 2.3,2.3 0 0 0 -2.19,1.6 l -0.59,1.83 h -1.83 a 3.65,3.65 0 0 0 -3.65,3.64 v 22.06 a 3.65,3.65 0 0 0 3.65,3.69 h 33.48 a 3.63,3.63 0 0 0 3.63,-3.64 V 33.25 a 3.63,3.63 0 0 0 -3.63,-3.64 z m -34.56,5.83 2.23,-3 h 31.13 l 1.65,3 z"
           id="path80"
           style="fill:#ff0000" />
        <polygon
           class="cls-1"
           points="149.43,51.11 149.43,38.9 172.06,38.9 172.06,68.3 159.85,68.3 159.85,51.11 "
           id="polygon82"
           style="fill:#ff0000" />
      </g>
      <text
         xml:space="preserve"
         style="font-size:96px;line-height:1.25;font-family:sans-serif;-inkscape-font-specification:sans-serif"
         x="206.1564"
         y="77.894341"
         id="text4111"><tspan
           sodipodi:role="line"
           id="tspan4109"
           x="206.1564"
           y="77.894341"
           style="font-style:italic;font-variant:normal;font-weight:bold;font-stretch:normal;font-size:96px;font-family:sans-serif;-inkscape-font-specification:'sans-serif Bold Italic'">for</tspan></text>
    </g>
  </g>
  <metadata
     id="metadata905">
    <rdf:RDF>
      <cc:Work
         rdf:about="">
        <dc:title>Ресурс 2</dc:title>
      </cc:Work>
    </rdf:RDF>
  </metadata>
</svg>
